<svg width="67" height="67" viewBox="0 0 67 67" fill="none" xmlns="http://www.w3.org/2000/svg">
<path d="M37.306 66.7915C39.8608 65.7306 41.6659 63.3921 42.0269 60.6482L45.7536 32.6648C46.0146 30.7207 47.2754 29.0599 49.0804 28.2934L58.9943 24.0831C61.4658 23.0334 63.6652 21.4392 65.4313 19.4229L66.581 18.1121C67.4974 17.0679 66.8198 15.4237 65.4313 15.3293L63.6929 15.2127C61.0159 15.0349 58.3334 15.4626 55.8452 16.4624L45.8591 20.4838C44.043 21.217 41.9713 20.9338 40.4162 19.7395L18.0115 2.56512C15.8121 0.882115 12.8851 0.498861 10.3303 1.55421C19.7221 9.17495 27.8309 20.1895 31.0689 24.8552C31.5076 25.494 31.2466 26.3716 30.5246 26.6604L29.1139 24.7886C28.4307 23.8776 27.1533 23.6499 26.1925 24.2664L23.6154 25.9272C23.2655 26.1494 23.0045 26.4827 22.8656 26.877C22.7212 27.2825 22.438 27.6269 22.0714 27.8546L21.1272 28.4267L22.3325 28.1601C22.7101 28.0768 23.0989 28.1101 23.4544 28.2601L24.0542 28.5101L25.0206 28.8933L22.9045 29.7487C21.5438 30.2986 20.2608 31.0151 19.0778 31.8872L13.1462 36.2752L7.54221 30.232C6.34255 28.9378 4.40976 28.6434 2.87131 29.5154L0.544189 30.8263L8.67522 39.5635L7.02013 40.7854C6.74799 40.9854 6.92571 41.4131 7.25895 41.3631L9.29171 41.0576L9.70826 52.9831L12.302 52.2721C13.9959 51.8111 15.1512 50.2503 15.1012 48.4951L14.8568 40.2244L22.077 39.1469C23.5266 38.9302 24.9428 38.5303 26.2924 37.9582L28.3918 37.0639L27.9753 38.0193L27.7254 38.6192C27.5754 38.9747 27.3255 39.2746 27.0034 39.4801L25.9592 40.1411L27.0311 39.8801C27.4532 39.7745 27.892 39.8245 28.2808 40.0078C28.6529 40.1856 29.075 40.2356 29.4804 40.1467L32.4796 39.4968C33.5959 39.258 34.3346 38.1915 34.1735 37.0639L33.8459 34.7422C34.5568 34.4367 35.3676 34.8755 35.5065 35.6364C36.5229 41.2298 38.5667 54.7605 37.306 66.7915Z" fill="#177BA5"/>
</svg>
